<?xml version="1.0" standalone="no"?>
<!DOCTYPE svg PUBLIC "-//W3C//DTD SVG 20010904//EN"
 "http://www.w3.org/TR/2001/REC-SVG-20010904/DTD/svg10.dtd">
<svg version="1.0" xmlns="http://www.w3.org/2000/svg"
 width="564.000000pt" height="564.000000pt" viewBox="0 0 564.000000 564.000000"
 preserveAspectRatio="xMidYMid meet">
<metadata>
Created by potrace 1.11, written by Peter Selinger 2001-2013
</metadata>
<g transform="translate(0.000000,564.000000) scale(0.100000,-0.100000)"
fill="#000000" stroke="none">
<path d="M0 2820 l0 -2820 2820 0 2820 0 0 2820 0 2820 -2820 0 -2820 0 0
-2820z m2200 -10 l0 -2100 -348 0 -348 0 -92 223 c-51 122 -92 227 -92 233 0
12 227 110 235 102 3 -3 31 -67 63 -144 l58 -139 132 -3 132 -3 0 1966 0 1965
130 0 130 0 0 -2100z m920 0 l0 -2100 -130 0 -130 0 -2 804 -3 805 -108 -102
-108 -102 1 -702 0 -703 -130 0 -130 0 0 2100 0 2100 370 0 370 0 0 -2100z
m930 0 l0 -2100 -375 0 -375 0 0 2100 0 2100 375 0 375 0 0 -2100z"/>
<path d="M2640 3570 c0 -594 3 -1080 7 -1080 4 0 54 46 110 102 l103 103 0
977 0 978 -110 0 -110 0 0 -1080z"/>
<path d="M3560 2815 l0 -1835 110 0 110 0 0 1835 0 1835 -110 0 -110 0 0
-1835z"/>
</g>
</svg>
