<?xml version="1.0" encoding="utf-8"?>
<!-- Generator: Adobe Illustrator 20.1.0, SVG Export Plug-In . SVG Version: 6.00 Build 0)  -->
<svg version="1.1" id="jad_x5F_logo" xmlns="http://www.w3.org/2000/svg" xmlns:xlink="http://www.w3.org/1999/xlink" x="0px"
	 y="0px" viewBox="0 0 1761.7 697.2" style="enable-background:new 0 0 1761.7 697.2;" xml:space="preserve">
<style type="text/css">
	.st0{fill:none;stroke:#FFFFFF;stroke-width:2;stroke-miterlimit:10;}
	.st1{fill:#ED1C24;}
	.st2{fill:none;stroke:#FFFFFF;stroke-width:26;stroke-miterlimit:10;}
	.st3{fill:none;stroke:#414042;stroke-width:12;stroke-miterlimit:10;}
	.st4{fill:none;stroke:#414042;stroke-width:20;stroke-miterlimit:10;}
	.st5{fill:none;stroke:#414042;stroke-width:5;stroke-linecap:round;stroke-miterlimit:10;}
</style>
<path id="circle" class="st0" d="M534.5,282.2c0,104.4-66.9,200-165,235.7c-98.8,35.6-211.3,4.4-278.2-76.3
	C24.4,361,15.7,243.4,70,153.4C123.8,64,230,16.5,332.5,36.5C448.2,59,534.5,164,534.5,282.2z"/>
<path id="square" class="st1" d="M2.3,564.4h564.4V0H2.3V564.4z"/>
<polyline id="j_2_" class="st2" points="129.3,441.2 145,479.2 192.8,479.2 192.8,72.7 "/>
<polyline id="a" class="st2" points="236.6,492.3 236.6,85.7 284.9,85.7 284.9,492.3 "/>
<line id="a-" class="st2" x1="236.6" y1="346.5" x2="284.9" y2="300"/>
<rect id="d_1_" x="328.7" y="85.7" class="st2" width="48.7" height="393.5"/>
<path id="fnm-j" class="st3" d="M668.6,23h48.7v127c0,19.4-12.4,33.3-31.8,34.2c-12.5,0.5-30.1-9.8-31.8-29.1v-29.4"/>
<path id="fnm-o" class="st3" d="M799.9,184.2L799.9,184.2c-17.5,0-31.9-14.3-31.9-31.9V53.8c0-17.5,14.3-31.9,31.9-31.9l0,0
	c17.5,0,31.9,14.3,31.9,31.9v98.5C831.8,169.9,817.4,184.2,799.9,184.2z"/>
<polyline id="fnm-e" class="st3" points="943.7,23 881.8,23 881.8,183.2 943.7,183.2 "/>
<line id="fnm-e-" class="st3" x1="881.8" y1="95.2" x2="933.5" y2="95.2"/>
<polyline id="fnm-l" class="st3" points="985.3,18.9 985.3,183.2 1042.6,183.2 "/>
<polyline id="lnm-a" class="st3" points="1138.2,186.9 1174.4,23.5 1181.1,23.5 1217.4,187.2 "/>
<line id="lnm-a-" class="st3" x1="1150.2" y1="129.8" x2="1204.8" y2="129.9"/>
<polyline id="lnm-l" class="st3" points="1261.2,18.9 1261.2,183.2 1318.4,183.2 "/>
<path id="lnm-d" class="st3" d="M1385.6,183.3L1385.6,183.3c-17.2,0-30.2,0-30.2,0V23c0,0,13,0,30.2,0l0,0
	c17.2,0,31.3,14.2,31.3,31.5v97.3C1416.9,169.1,1402.8,183.3,1385.6,183.3z"/>
<path id="lnm-o" class="st3" d="M1499.6,184.2L1499.6,184.2c-17.5,0-31.9-14.3-31.9-31.9V53.8c0-17.5,14.3-31.9,31.9-31.9l0,0
	c17.5,0,31.9,14.3,31.9,31.9v98.5C1531.4,169.8,1517.1,184.2,1499.6,184.2z"/>
<polyline id="lnm-y" class="st3" points="1575.1,18.9 1607.4,102 1607.4,187.2 1607.4,102 1640.1,18.9 "/>
<polyline id="lnm-n" class="st3" points="1685.8,187.2 1685.5,23.3 1686.7,23.3 1745.8,182.7 1746.5,182.7 1747.1,18.9 "/>
<path id="dsn-d" class="st4" d="M718.2,544.8L718.2,544.8c-34.4,0-60.4,0-60.4,0V229.4c0,0,26,0,60.4,0l0,0
	c34.4,0,62.6,27.9,62.6,62v191.4C780.8,516.8,752.6,544.8,718.2,544.8z"/>
<polyline id="dsn-e_1_" class="st4" points="996.5,230.6 875.5,230.6 875.5,543.6 996.5,543.6 "/>
<line id="dsn-e-" class="st4" x1="879.2" y1="371.6" x2="980.3" y2="371.6"/>
<path id="dns-s" class="st4" d="M1091.3,484.2c0,21.7,17.5,62.9,61.8,62.9c56.8,0,64.3-52.8,64.3-66.3c0-35-16.7-60.5-79-108.3
	c-36.5-28-47-55.5-46.5-82.8c0.4-22.6,19.5-62,62.5-62c50.5,0,63.1,49,63,62.5"/>
<line id="dsn-i" class="st4" x1="1312.1" y1="221.9" x2="1312.1" y2="552.3"/>
<path id="dsn-g" class="st4" d="M1533,290c0-34.2-28-62.3-62.3-62.3h-1.5c-34.2,0-62.3,28-62.3,62.3v194.8c0,34.2,28,62.3,62.3,62.3
	h1.5c34.2,0,62.3-28,62.3-62.3V374.2l-75.1-0.3"/>
<polyline id="dsn-n" class="st4" points="1628.4,552.3 1627.7,230.5 1630.2,230.5 1746.3,543.6 1747.7,543.6 1748.7,221.9 "/>
<line id="line" class="st5" x1="7.6" y1="630.2" x2="1754.1" y2="630.2"/>
</svg>
