<?xml version="1.0" encoding="utf-8"?>
<!-- Generator: Adobe Illustrator 20.1.0, SVG Export Plug-In . SVG Version: 6.00 Build 0)  -->
<svg version="1.1" id="Layer_1" xmlns="http://www.w3.org/2000/svg" xmlns:xlink="http://www.w3.org/1999/xlink" x="0px" y="0px"
	 viewBox="0 0 784 328" style="enable-background:new 0 0 784 328;" xml:space="preserve">
<style type="text/css">
	.st0{fill:none;stroke:#000000;stroke-width:6;stroke-linecap:round;stroke-miterlimit:10;}
</style>
<path id="J" class="st6" d="M150.9,273.3c-28.5-9.9-50.6-34.9-59.5-63.7s-7.8-54.7,5-82c7-14.8,24.5-31.7,34.5-38.7
	c22.1-15.5,45.3-21,51.9-17.5C192.8,88.6,152,178.2,121.3,218S50.9,290.2,8.5,317.2"/>
<path id="oel" class="st6" d="M137.9,221.4c15.5-18.5-1.9,11.9,17.1,3.8c0,0,43.8-23.7,73.7-13.8"/>
<path id="aldo" class="st6" d="M164,323.9c71.7-63.3,133.7-147.7,177.6-223.1c10.4-17.9,44-76,29.7-91c-9.4-9.9-99.7,3.4-158.7,66.1
	c-35.8,38.1-42.4,108.5-28.4,131.9c14.5,24.2,49.1,18.8,59.2,10c-1.6,8.8-0.2,20.8,8.7,28.8c18.1,16.2,81.7,10.8,127.4-7.1"/>
<path id="blonc" class="st6" d="M243.5,273.6c32.2-47.2,73-104.3,94.2-127.1c24.5-26.4,60.1-64.2,98.8-84.9
	c34.6-18.6,76.9-29.9,87.7-16.8c13.5,16.4-8.7,50.7-52.2,76.3c-17.6,10.4-99,46.5-134.4,52.7c29.5-18.6,76.5-17.7,104.7-14.4
	c19.2,2.2,40.2,6.2,52.2,21.3c8.1,10.2,10.5,24.7,6.2,37c-5.2,14.8-18.7,24.8-31.9,33.3c-59.8,38.9-148.2,35.6-206.3,20.2
	c-2-13.7,95.2-38.4,130.9-44.7c51.9-9.2,119-19.5,170.7-18.8c61.8,0.8,157.8-5.1,211.4-42.4"/>
<path id="t" class="st6" d="M727.6,129.3c8.1-0.4,8.1-0.4,16.3-0.9c-11.1,23.9-57.4,47.8-97.2,116.6"/>
</svg>
